<svg xmlns="http://www.w3.org/2000/svg" width="18" height="18" viewBox="0 0 24 24" fill="none">
  <path d="M12 2a1 1 0 0 1 1 1v1.2a1 1 0 1 1-2 0V3a1 1 0 0 1 1-1Z" fill="#ff8c1a"/>
  <path d="M12 19.8a1 1 0 0 1 1 1V22a1 1 0 1 1-2 0v-1.2a1 1 0 0 1 1-1Z" fill="#ff8c1a"/>
  <path d="M4.22 4.22a1 1 0 0 1 1.42 0l.85.85a1 1 0 1 1-1.42 1.42l-.85-.85a1 1 0 0 1 0-1.42Z" fill="#ff8c1a"/>
  <path d="M17.51 17.51a1 1 0 0 1 1.42 0l.85.85a1 1 0 1 1-1.42 1.42l-.85-.85a1 1 0 0 1 0-1.42Z" fill="#ff8c1a"/>
  <path d="M2 12a1 1 0 0 1 1-1h1.2a1 1 0 1 1 0 2H3a1 1 0 0 1-1-1Z" fill="#ff8c1a"/>
  <path d="M19.8 12a1 1 0 0 1 1-1H22a1 1 0 1 1 0 2h-1.2a1 1 0 0 1-1-1Z" fill="#ff8c1a"/>
  <path d="M6.5 12a5.5 5.5 0 1 0 11 0 5.5 5.5 0 0 0-11 0Z" fill="#ff8c1a" opacity=".25"/>
  <path d="M12 7a5 5 0 0 0 0 10 5 5 0 0 0 0-10Z" stroke="#ff8c1a" stroke-width="2"/>
  <path d="M15.5 12a3.5 3.5 0 0 1-3.5 3.5V8.5A3.5 3.5 0 0 1 15.5 12Z" fill="#ff8c1a"/>
</svg>
